<svg class="w-45" viewBox="0 0 320 320" fill="currentColor" xmlns="http://www.w3.org/2000/svg">
<path d="M111.201 222.713C126.422 222.713 140.95 217.034 152.114 206.73C155.575 203.536 155.78 198.142 152.576 194.691C149.368 191.237 143.96 191.033 140.495 194.231C132.507 201.61 122.1 205.673 111.201 205.673C87.4268 205.673 68.0885 186.391 68.0885 162.696C68.0885 139.001 87.4277 119.719 111.201 119.719C122.089 119.719 132.485 123.775 140.474 131.14C143.939 134.334 149.347 134.127 152.555 130.672C155.759 127.218 155.551 121.828 152.086 118.633C140.933 108.343 126.412 102.679 111.208 102.679C78.0049 102.679 50.9985 129.605 50.9985 162.7C50.995 195.792 77.9976 222.714 111.201 222.714L111.201 222.713Z"/>
<path d="M226.595 222.713C241.817 222.713 256.344 217.034 267.508 206.73C270.97 203.536 271.174 198.142 267.97 194.691C264.762 191.237 259.355 191.033 255.889 194.231C247.901 201.61 237.495 205.673 226.595 205.673C202.821 205.673 183.483 186.391 183.483 162.696C183.483 139.001 202.822 119.719 226.595 119.719C237.484 119.719 247.88 123.775 255.868 131.14C259.334 134.334 264.741 134.127 267.949 130.672C271.154 127.218 270.946 121.828 267.481 118.633C256.327 108.343 241.807 102.679 226.603 102.679C193.399 102.679 166.393 129.605 166.393 162.7C166.39 195.792 193.392 222.714 226.596 222.714L226.595 222.713Z"/>
<path d="M160 319C246.191 319 319 246.191 319 160.004C319.003 73.8152 246.186 1 160 1C73.817 1 1 73.8088 1 159.996C1 246.183 73.817 319 160 319ZM160 16.1402C237.979 16.1402 303.859 82.02 303.859 159.996C303.859 237.976 237.981 303.852 160 303.852C82.0212 303.852 16.1406 237.975 16.1406 159.996C16.1406 82.0192 82.022 16.1402 160 16.1402V16.1402Z"/>
</svg>
