<svg class="w-36" width="1" viewBox="0 0 512 512" fill="currentColor" xmlns="http://www.w3.org/2000/svg">
<g >
<path d="M256.001 512C114.841 512 0.000976562 397.158 0.000976562 256C0.000976562 114.842 114.841 0 256.001 0C298.616 0 340.815 10.687 378.035 30.906C384.933 34.653 387.487 43.283 383.74 50.181C379.992 57.08 371.363 59.632 364.465 55.886C331.397 37.921 293.892 28.427 256.001 28.427C130.517 28.427 28.428 130.517 28.428 256C28.428 381.483 130.517 483.573 256.001 483.573C381.485 483.573 483.573 381.483 483.573 256C483.573 207.928 468.77 161.977 440.764 123.111C436.174 116.742 437.619 107.86 443.986 103.27C450.353 98.68 459.237 100.123 463.827 106.492C495.341 150.227 511.998 201.925 511.998 255.999C512.001 397.158 397.159 512 256.001 512Z"/>
<path d="M451.881 295.945C450.367 290.95 446.825 286.739 442.163 284.394L405.267 265.831C400.558 263.466 395.02 263.15 390.076 264.965C382.706 267.668 378.924 275.833 381.627 283.204C383.751 288.993 389.267 292.515 395.077 292.527L420.163 305.149C404.871 326.141 381.401 338.41 355.717 338.41C307.04 338.41 276.802 306.805 276.802 255.927C276.802 206.681 307.88 173.593 354.137 173.593C383.262 173.593 405.131 183.56 419.281 203.234L396.777 214.993C386.451 199.817 371.733 194.177 360.323 194.177C345.609 194.177 311.388 200.194 311.388 255.925C311.388 269.513 313.833 288.595 325.484 302.328C330.561 308.313 339.531 309.05 345.518 303.973C351.505 298.894 352.241 289.926 347.163 283.939C342.494 278.436 339.817 268.224 339.817 255.925C339.817 222.604 353.668 222.604 360.324 222.604C361.905 222.605 370.082 223.231 375.808 235.476C378.011 240.185 382.1 243.839 387.005 245.495C391.931 247.164 397.401 246.74 402.01 244.332L441.336 223.785C445.874 221.417 449.327 217.248 450.799 212.366C452.281 207.477 451.723 202.099 449.26 197.602C430.697 163.788 396.916 145.165 354.137 145.165C324.126 145.165 297.03 156.313 277.835 176.554C271.263 183.485 265.739 191.41 261.29 200.076C260.974 199.23 260.619 198.399 260.183 197.6C241.62 163.786 207.837 145.163 165.058 145.163C135.047 145.163 107.951 156.311 88.756 176.552C69.758 196.588 59.295 224.775 59.295 255.922C59.295 322.261 102.433 366.832 166.638 366.832C205.599 366.832 240.69 346.229 260.68 311.695C277.843 346.022 311.858 366.832 355.716 366.832C394.951 366.832 430.269 345.947 450.185 310.972C452.777 306.437 453.397 300.965 451.881 295.945ZM166.64 338.408C117.963 338.408 87.725 306.803 87.725 255.925C87.725 206.679 118.803 173.591 165.06 173.591C194.188 173.591 216.057 183.558 230.205 203.232L207.699 214.991C197.371 199.815 182.655 194.175 171.245 194.175C156.531 194.175 122.31 200.192 122.31 255.923C122.31 294.025 141.061 317.695 171.245 317.695C189.36 317.695 202.673 310.375 211.693 295.387L231.089 305.145C215.795 326.14 192.325 338.408 166.64 338.408ZM216.19 265.83C211.519 263.483 205.926 263.158 200.983 264.97C196.034 266.792 192.017 270.624 189.959 275.492C185.017 287.208 179.987 289.269 171.244 289.269C157.636 289.269 150.737 278.05 150.737 255.924C150.737 222.603 164.588 222.603 171.244 222.603C172.825 222.604 181.002 223.23 186.728 235.475C188.931 240.184 193.02 243.84 197.925 245.494C202.816 247.153 208.352 246.725 212.93 244.331L252.256 223.784C252.293 223.764 252.327 223.74 252.365 223.72C249.748 233.914 248.374 244.723 248.374 255.925C248.374 265.565 249.311 274.727 251.065 283.377L216.19 265.83Z"/>
</g>
</svg>
